<?xml version="1.0" encoding="iso-8859-1"?>
<!-- Generator: Adobe Illustrator 26.4.1, SVG Export Plug-In . SVG Version: 6.00 Build 0)  -->
<svg version="1.1" id="Layer_1" xmlns="http://www.w3.org/2000/svg" xmlns:xlink="http://www.w3.org/1999/xlink" x="0px" y="0px"
	 viewBox="0 0 595.276 841.89" style="enable-background:new 0 0 595.276 841.89;" xml:space="preserve">
<path style="fill:#F15A29;" d="M317.78,85.149c-66.785-0.034-120.955,53.605-120.992,119.806
	c-0.006,11.043,1.502,21.734,4.316,31.89c8.405-9.027,18.899-17.044,30.998-23.754l19.729-33.406l21.477-36.367l21.477,36.367
	l1.368,2.317l5.61-10.033l24.649-44.083l24.649,44.083l3.941,7.048l14.727-26.457l17.671,31.746l12.412,22.297
	c5.231,2.568,12.07,6.601,19.017,12.844c8.013,7.2,13.17,14.643,16.34,20.085c2.489-9.243,4.417-21.005,3.467-34.455
	C435.103,155.005,391.955,85.187,317.78,85.149z"/>
<polygon style="fill:#603913;" points="398.367,217.853 377.915,194.096 374.256,199.45 372.584,204.944 370.913,210.437 
	365.928,208.019 360.87,213.895 356.309,208.621 329.462,177.574 329.09,178.635 326.149,187.016 322.362,181.898 318.407,186.471 
	317.141,195.631 315.78,205.477 305.691,201.176 299.253,208.621 292.761,216.129 291.177,214.395 266.666,187.559 266.116,193.995 
	262.593,191.26 257.302,197.053 258.095,200.5 260.345,210.296 248.001,207.236 241.463,214.395 216.606,241.61 266.32,241.61 
	270.725,241.61 316.034,241.61 327.781,241.61 337.011,241.61 377.915,241.61 384.837,241.61 418.819,241.61 "/>
<g>
	<path style="fill:#424B00;" d="M221.833,286.099l0.242-7.955c-2.579-0.375-4.742-1.388-6.488-3.042
		c-1.747-1.653-2.619-3.868-2.619-6.645c0-2.277,0.967-4.484,2.901-6.621c1.934-2.136,4.244-3.206,6.931-3.206
		c3.949,0,5.924,2.979,5.924,8.938c0,1.748-0.101,4.422-0.302,8.025c-0.202,3.603-0.302,6.325-0.302,8.165
		c0,1.841,0.429,2.761,1.29,2.761c0.51,0,1.255-0.506,2.236-1.521c0.98-1.013,1.807-2.113,2.478-3.299
		c0.591-7.05,0.887-11.261,0.887-12.634c0-1.373-0.007-2.309-0.02-2.808c-0.014-0.499-0.041-0.983-0.081-1.451
		c-0.041-0.468-0.067-0.819-0.081-1.053c-0.014-0.234-0.067-0.554-0.161-0.959c-0.095-0.405-0.148-0.639-0.161-0.702
		c-0.014-0.062-0.081-0.328-0.202-0.795c-0.121-0.468-0.182-0.717-0.182-0.749c1.37-0.842,3.613-1.481,6.73-1.919v0.047
		c0.295,1.092,0.443,2.66,0.443,4.703c0,2.043-0.269,5.592-0.806,10.646c-0.538,5.053-0.806,8.399-0.806,10.037
		s0.41,2.457,1.229,2.457c0.819,0,1.813-0.842,2.982-2.526c1.168-1.685,2.243-3.884,3.224-6.598c0.98-2.714,1.592-5.35,1.833-7.908
		c0-2.527-1.142-5.443-3.425-8.75c0.537-1.341,1.235-2.55,2.096-3.626c0.859-1.076,1.584-1.817,2.176-2.223l0.887-0.655
		c0.994,0,1.847,0.819,2.559,2.457c0.711,1.638,1.068,3.557,1.068,5.756s-0.511,5.022-1.532,8.469
		c-1.021,3.447-2.304,6.761-3.848,9.943c-1.545,3.182-3.358,5.904-5.44,8.165c-2.082,2.262-4.063,3.393-5.944,3.393
		c-0.967,0-1.813-0.562-2.539-1.685c-0.725-1.123-1.102-2.558-1.128-4.305c-1.155,1.872-2.377,3.338-3.667,4.398
		s-2.579,1.591-3.869,1.591s-2.364-0.608-3.224-1.825C222.263,289.374,221.833,287.876,221.833,286.099z M222.438,267.663
		c0-1.934-0.155-3.252-0.463-3.954c-0.309-0.702-0.9-1.053-1.773-1.053c-0.874,0-1.881,0.562-3.022,1.685
		c-1.142,1.123-1.712,2.589-1.712,4.398c0,1.81,0.678,3.307,2.035,4.492c1.356,1.186,2.935,1.778,4.735,1.778
		C222.37,272.045,222.438,269.597,222.438,267.663z"/>
	<path style="fill:#424B00;" d="M258.423,292.416c-1.854,0-3.304-0.756-4.352-2.27c-1.048-1.513-1.572-3.626-1.572-6.34
		c0-3.462,0.799-6.441,2.398-8.937c1.598-2.496,3.808-3.744,6.629-3.744l1.451,0.094c0.457-0.281,0.967-0.421,1.531-0.421
		c2.122,0,3.184,2.324,3.184,6.972c1.101-0.062,2.216-0.234,3.345-0.515l0.645-0.187l0.242,1.825
		c-0.886,0.437-2.082,0.827-3.586,1.17l-0.806,0.187c-0.511,3.275-1.545,6.123-3.103,8.54
		C262.869,291.207,260.867,292.416,258.423,292.416z M260.599,288.392c1.128,0,2.142-0.842,3.042-2.527
		c0.9-1.685,1.524-3.463,1.874-5.334c-2.875,0-4.312-1.247-4.312-3.743c0-0.998,0.175-1.934,0.524-2.808l0.202-0.468
		c-0.108-0.062-0.242-0.094-0.403-0.094s-0.282,0.031-0.363,0.094c-0.672,0.499-1.303,1.669-1.894,3.509
		c-0.591,1.841-0.887,3.946-0.887,6.317C258.382,286.707,259.121,288.392,260.599,288.392z"/>
	<path style="fill:#424B00;" d="M269.505,291.994h-0.282c-0.054-0.249-0.081-0.819-0.081-1.708c0-0.889,0.362-3.283,1.088-7.183
		c0.726-3.899,1.088-6.13,1.088-6.691c0-0.967-0.376-2.027-1.128-3.182l-0.362-0.562l0.04-0.608
		c1.451-0.468,3.774-0.702,6.972-0.702c0.322,0.812,0.483,1.95,0.483,3.416c0.295-0.562,0.913-1.31,1.854-2.246
		s1.907-1.404,2.902-1.404c1.451,0,2.176,1.467,2.176,4.398c-0.135,0.188-0.316,0.429-0.544,0.726
		c-0.229,0.297-0.685,0.71-1.37,1.24c-0.685,0.531-1.35,0.858-1.995,0.983c-0.027,0-0.256-0.421-0.685-1.264
		c-0.43-0.842-0.752-1.263-0.967-1.263c-0.672,0.281-1.263,0.749-1.773,1.404c-1.236,6.457-1.854,10.638-1.854,12.54
		c0,0.687,0.014,1.17,0.041,1.451C274.166,291.776,272.299,291.994,269.505,291.994z"/>
	<path style="fill:#424B00;" d="M286.49,292.416c-0.927,0-1.692-0.359-2.297-1.076s-0.907-1.723-0.907-3.018
		c0-1.294,0.665-5.428,1.995-12.4c1.33-6.972,1.995-12.002,1.995-15.091l-0.242-2.059c2.096-0.842,4.056-1.263,5.883-1.263
		c0.269,0.437,0.403,1.201,0.403,2.292c0,2.496-0.679,7.323-2.035,14.482c-1.357,7.159-2.035,11.324-2.035,12.493
		c0,1.17,0.121,1.755,0.363,1.755l2.821-1.17l0.725,1.638c-0.914,0.842-2.021,1.623-3.324,2.34
		C288.531,292.057,287.417,292.416,286.49,292.416z"/>
	<path style="fill:#424B00;" d="M313.186,289c-2.283,2.278-4.291,3.416-6.023,3.416s-2.734-0.998-3.002-2.995
		c-0.807,0.936-1.707,1.669-2.701,2.199c-0.994,0.53-1.867,0.795-2.619,0.795c-1.289,0-2.391-0.655-3.304-1.965
		c-0.914-1.31-1.37-3.337-1.37-6.083c0-4.118,0.752-7.354,2.256-9.709c1.506-2.355,3.205-3.533,5.097-3.533
		c1.895,0,3.486,0.5,4.775,1.498c0.832-5.054,1.25-9.031,1.25-11.932l-0.201-1.965c2.014-0.811,3.988-1.216,5.924-1.216
		c0.215,0.531,0.322,1.139,0.322,1.825c0,2.277-0.592,6.902-1.773,13.874c-1.184,6.972-1.773,11.706-1.773,14.201
		c0,0.749,0.148,1.123,0.443,1.123c0.162,0,0.672-0.296,1.531-0.889l0.402-0.281L313.186,289z M303.475,273.886
		c-0.941,0-1.752,1.076-2.438,3.229c-0.686,2.153-1.027,4.282-1.027,6.387c0,2.106,0.127,3.456,0.383,4.048
		c0.254,0.593,0.637,0.889,1.148,0.889c0.887,0,1.758-0.421,2.619-1.263c0.08-1.248,0.686-5.396,1.812-12.447
		C305.059,274.167,304.227,273.886,303.475,273.886z"/>
	<path style="fill:#424B00;" d="M341.495,284.133c0.766,1.748,1.424,2.933,1.975,3.556c0.55,0.625,0.98,0.936,1.289,0.936
		s0.812-0.109,1.512-0.328l0.604,1.825c-0.807,0.687-1.793,1.24-2.962,1.661c-1.169,0.421-2.196,0.632-3.083,0.632
		c-2.069,0-3.601-1.154-4.594-3.462c-0.564-1.311-1.478-4.133-2.74-8.47c-2.472,3.713-4.701,7.425-6.689,11.137
		c-0.269,0.53-0.604,0.795-1.008,0.795c-0.402,0-0.94-0.18-1.611-0.538c-0.672-0.358-1.196-0.803-1.571-1.333
		c1.021-1.902,2.081-3.619,3.183-5.147c1.102-1.528,1.881-2.604,2.338-3.229c0.456-0.624,1.188-1.575,2.196-2.854
		c1.007-1.278,1.698-2.167,2.075-2.667c-1.155-3.774-1.747-5.692-1.773-5.755c-1.37,0.999-2.841,1.498-4.412,1.498
		c-1.572,0-2.849-0.585-3.828-1.755c-0.981-1.17-1.472-2.659-1.472-4.469c0-2.308,0.752-4.235,2.257-5.779s3.21-2.316,5.118-2.316
		c2.552,0,4.473,1.327,5.763,3.978c0.59,1.248,1.558,4.087,2.901,8.516c2.202-3.275,4.378-6.987,6.528-11.136
		c0.241-0.53,0.604-0.796,1.088-0.796c1.128,0,2.176,0.593,3.143,1.778c-1.074,2.152-2.432,4.321-4.069,6.504
		c-0.538,0.749-1.472,1.997-2.801,3.744c-1.33,1.748-2.236,2.948-2.721,3.603C339.607,279.096,340.729,282.387,341.495,284.133z
		 M323.422,266.212c0,0.874,0.262,1.661,0.785,2.363c0.524,0.702,1.283,1.053,2.277,1.053c0.993,0,2.055-0.515,3.184-1.544
		c-0.188-0.53-0.39-1.06-0.604-1.591c-0.967-2.215-2.082-3.322-3.345-3.322c-0.699,0-1.256,0.289-1.673,0.866
		C323.63,264.614,323.422,265.339,323.422,266.212z"/>
	<path style="fill:#424B00;" d="M347.156,302.335c-0.134-0.375-0.201-1.201-0.201-2.48c0-1.279,0.523-4.719,1.571-10.318
		c1.048-5.599,1.572-9.912,1.572-12.938c0-0.592-0.121-1.224-0.363-1.895c-0.241-0.67-0.497-1.193-0.766-1.567l-0.362-0.515
		l0.04-0.608c1.263-0.468,3.492-0.702,6.689-0.702c0.295,0.655,0.483,1.576,0.564,2.761c2.068-1.965,3.794-2.948,5.178-2.948
		s2.499,0.671,3.345,2.012c0.847,1.341,1.27,3.307,1.27,5.896c0,4.524-0.712,7.885-2.136,10.084c-1.425,2.199-3.224,3.299-5.4,3.299
		c-1.128,0-2.068-0.187-2.82-0.562l-0.403-0.187l0.282-1.825c0.242,0.063,0.524,0.094,0.847,0.094c0.698,0,1.31-0.375,1.833-1.123
		c0.524-0.749,0.92-1.7,1.189-2.854c0.537-2.308,0.806-4.445,0.806-6.41c0-2.808-0.497-4.211-1.491-4.211
		c-0.779,0-1.612,0.359-2.498,1.076c-0.108,2.184-0.659,6.005-1.652,11.464c-0.994,5.459-1.491,9.857-1.491,13.196
		C351.308,301.758,349.439,302.179,347.156,302.335z"/>
	<path style="fill:#424B00;" d="M370.67,292.416c-0.927,0-1.692-0.359-2.297-1.076s-0.907-1.723-0.907-3.018
		c0-1.294,0.665-5.428,1.995-12.4c1.33-6.972,1.995-12.002,1.995-15.091l-0.242-2.059c2.096-0.842,4.057-1.263,5.884-1.263
		c0.268,0.437,0.402,1.201,0.402,2.292c0,2.496-0.679,7.323-2.035,14.482s-2.034,11.324-2.034,12.493c0,1.17,0.12,1.755,0.362,1.755
		l2.82-1.17l0.726,1.638c-0.913,0.842-2.021,1.623-3.324,2.34C372.711,292.057,371.597,292.416,370.67,292.416z"/>
	<path style="fill:#424B00;" d="M383.907,292.416c-1.854,0-3.305-0.756-4.353-2.27c-1.047-1.513-1.571-3.626-1.571-6.34
		c0-3.462,0.799-6.441,2.397-8.937c1.599-2.496,3.809-3.744,6.629-3.744l1.451,0.094c0.456-0.281,0.967-0.421,1.531-0.421
		c2.122,0,3.184,2.324,3.184,6.972c1.102-0.062,2.216-0.234,3.345-0.515l0.645-0.187l0.242,1.825
		c-0.887,0.437-2.083,0.827-3.587,1.17l-0.806,0.187c-0.511,3.275-1.545,6.123-3.104,8.54
		C388.354,291.207,386.352,292.416,383.907,292.416z M386.083,288.392c1.129,0,2.143-0.842,3.043-2.527
		c0.899-1.685,1.524-3.463,1.874-5.334c-2.875,0-4.312-1.247-4.312-3.743c0-0.998,0.175-1.934,0.524-2.808l0.201-0.468
		c-0.107-0.062-0.242-0.094-0.403-0.094s-0.282,0.031-0.362,0.094c-0.672,0.499-1.304,1.669-1.894,3.509
		c-0.592,1.841-0.887,3.946-0.887,6.317C383.867,286.707,384.605,288.392,386.083,288.392z"/>
	<path style="fill:#424B00;" d="M394.989,291.994h-0.282c-0.054-0.249-0.08-0.819-0.08-1.708c0-0.889,0.362-3.283,1.088-7.183
		c0.726-3.899,1.088-6.13,1.088-6.691c0-0.967-0.376-2.027-1.128-3.182l-0.363-0.562l0.041-0.608
		c1.45-0.468,3.773-0.702,6.971-0.702c0.322,0.812,0.484,1.95,0.484,3.416c0.295-0.562,0.912-1.31,1.854-2.246
		c0.939-0.936,1.907-1.404,2.901-1.404c1.45,0,2.176,1.467,2.176,4.398c-0.135,0.188-0.316,0.429-0.544,0.726
		c-0.229,0.297-0.686,0.71-1.37,1.24c-0.686,0.531-1.35,0.858-1.995,0.983c-0.026,0-0.255-0.421-0.685-1.264
		s-0.753-1.263-0.967-1.263c-0.672,0.281-1.264,0.749-1.773,1.404c-1.236,6.457-1.854,10.638-1.854,12.54
		c0,0.687,0.013,1.17,0.04,1.451C399.65,291.776,397.783,291.994,394.989,291.994z"/>
	<path style="fill:#424B00;" d="M408.69,283.759c0-3.899,1.014-6.979,3.042-9.241c2.028-2.261,4.332-3.393,6.911-3.393
		c1.585,0,2.888,0.453,3.909,1.357c1.021,0.905,1.531,2.114,1.531,3.626c0,1.514-0.329,2.784-0.987,3.813
		c-0.658,1.03-1.458,1.825-2.397,2.387c-1.908,1.092-3.654,1.778-5.239,2.059l-0.967,0.141c0.188,2.933,1.222,4.398,3.103,4.398
		c0.646,0,1.33-0.188,2.056-0.562c0.726-0.375,1.289-0.749,1.692-1.123l0.604-0.562l0.967,1.497
		c-0.215,0.344-0.645,0.796-1.289,1.357c-0.645,0.562-1.249,1.03-1.813,1.404c-1.559,0.998-3.265,1.498-5.118,1.498
		s-3.318-0.764-4.393-2.293C409.228,288.595,408.69,286.473,408.69,283.759z M417.717,280.203c0.806-1.06,1.209-2.433,1.209-4.118
		s-0.43-2.527-1.289-2.527c-1.021,0-1.808,1.006-2.357,3.018c-0.552,2.012-0.826,3.892-0.826,5.639
		C415.823,281.934,416.911,281.264,417.717,280.203z"/>
</g>
<g>
	<path d="M286.825,313.078c0,0.636-0.252,1.2-0.756,1.692s-1.168,0.738-1.992,0.738c-0.824,0-1.468-0.248-1.932-0.744
		c-0.496-0.528-0.744-1.16-0.744-1.896c0-0.088,0.004-0.2,0.012-0.336c-0.408,0.344-0.788,0.876-1.14,1.596
		c-0.456-0.208-0.768-0.472-0.936-0.792c0.624-0.952,1.416-1.612,2.376-1.98c0.4-0.976,1.116-1.972,2.148-2.988
		c-0.512-0.208-1.034-0.312-1.566-0.312c-0.532,0-1.026,0.164-1.482,0.492c-0.264-0.127-0.416-0.232-0.456-0.312
		c0-0.504,0.124-0.956,0.372-1.356c0.248-0.4,0.616-0.6,1.104-0.6c0.496,0,1.276,0.276,2.34,0.828
		c0.392,0.2,0.648,0.316,0.768,0.348c0.344-0.248,0.718-0.452,1.122-0.612c0.404-0.16,0.762-0.24,1.074-0.24s0.59,0.086,0.834,0.258
		c0.244,0.172,0.366,0.438,0.366,0.798s-0.13,0.674-0.39,0.942s-0.622,0.402-1.086,0.402c-0.24,0-0.636-0.072-1.188-0.216
		c-0.576,0.624-1.056,1.36-1.44,2.208c0.648,0.016,1.242,0.208,1.782,0.576C286.555,311.939,286.825,312.441,286.825,313.078z
		 M284.233,311.835c-0.08,0-0.192,0.008-0.336,0.024c-0.112,0.4-0.168,0.792-0.168,1.176c0,0.384,0.09,0.706,0.27,0.966
		c0.18,0.26,0.406,0.39,0.678,0.39s0.496-0.14,0.672-0.42c0.176-0.28,0.264-0.596,0.264-0.948c0-0.352-0.138-0.638-0.414-0.858
		C284.923,311.946,284.601,311.835,284.233,311.835z M287.485,307.78c0-0.176-0.096-0.264-0.288-0.264
		c-0.288,0-0.592,0.184-0.912,0.552c0.136,0.096,0.32,0.144,0.552,0.144C287.269,308.211,287.485,308.067,287.485,307.78z"/>
	<path d="M288.061,315.339h-0.096c-0.024-0.112-0.036-0.286-0.036-0.522c0-0.236,0.098-0.848,0.294-1.836
		c0.196-0.988,0.294-1.548,0.294-1.68c0-0.132-0.036-0.268-0.108-0.408c-0.072-0.14-0.144-0.246-0.216-0.318l-0.108-0.108
		l0.024-0.18c0.48-0.152,1.276-0.228,2.388-0.228c0.104,0.2,0.168,0.436,0.192,0.708c0.488-0.544,0.92-0.816,1.296-0.816
		c0.488,0,0.756,0.412,0.804,1.236c-0.016,0.016-0.036,0.042-0.06,0.078s-0.08,0.098-0.168,0.186s-0.18,0.168-0.276,0.24
		c-0.272,0.184-0.56,0.292-0.864,0.324c-0.008,0-0.062-0.088-0.162-0.264c-0.1-0.176-0.184-0.264-0.252-0.264
		c-0.068,0-0.194,0.072-0.378,0.216c-0.024,0.144-0.07,0.388-0.138,0.732c-0.068,0.344-0.122,0.628-0.162,0.852
		c-0.12,0.592-0.18,1.088-0.18,1.488l0.012,0.36C289.809,315.271,289.108,315.339,288.061,315.339z"/>
	<path d="M297.961,312.262c-0.12,0.716-0.18,1.216-0.18,1.5c0,0.284,0.044,0.426,0.132,0.426l0.6-0.168l0.216,0.6
		c-0.256,0.2-0.582,0.382-0.978,0.546s-0.746,0.246-1.05,0.246c-0.52,0-0.848-0.224-0.984-0.672
		c-0.632,0.448-1.19,0.672-1.674,0.672c-0.484,0-0.858-0.176-1.122-0.528c-0.264-0.352-0.396-0.856-0.396-1.512
		c0-0.904,0.232-1.7,0.696-2.388c0.464-0.688,1.076-1.032,1.836-1.032c0.416,0,0.84,0.116,1.272,0.348
		c0.064-0.144,0.116-0.248,0.156-0.312c0.576,0,1.212,0.14,1.908,0.42C298.225,310.928,298.081,311.546,297.961,312.262z
		 M294.781,313.222c0,0.404,0.028,0.658,0.084,0.762c0.056,0.104,0.16,0.156,0.312,0.156s0.3-0.06,0.444-0.18
		c0.032-0.928,0.184-1.9,0.456-2.916c-0.12-0.072-0.258-0.108-0.414-0.108c-0.156,0-0.296,0.088-0.42,0.264s-0.218,0.396-0.282,0.66
		C294.841,312.364,294.781,312.818,294.781,313.222z"/>
	<path d="M299.137,313.899l0.156-2.508c0-0.216-0.03-0.386-0.09-0.51c-0.06-0.124-0.182-0.298-0.366-0.522l0.048-0.18
		c0.616-0.144,1.128-0.216,1.536-0.216s0.694,0.094,0.858,0.282s0.246,0.454,0.246,0.798c0,0.344-0.062,0.848-0.187,1.512
		s-0.186,1.102-0.186,1.314s0.06,0.318,0.18,0.318c0.192,0,0.442-0.182,0.75-0.546c0.308-0.364,0.51-0.722,0.606-1.074l-0.889-0.852
		c0.032-0.336,0.104-0.65,0.216-0.942c0.112-0.292,0.212-0.498,0.301-0.618l0.144-0.192c0.968,0,1.452,0.4,1.452,1.2
		c0,0.52-0.158,1.106-0.474,1.758c-0.316,0.652-0.759,1.23-1.326,1.734c-0.568,0.504-1.156,0.756-1.765,0.756
		C299.541,315.412,299.137,314.908,299.137,313.899z"/>
	<path d="M303.913,313.096c0-0.992,0.302-1.764,0.905-2.316c0.604-0.552,1.351-0.828,2.238-0.828c0.616,0,1.11,0.134,1.482,0.402
		c0.371,0.268,0.558,0.626,0.558,1.074c0,0.328-0.101,0.62-0.3,0.876c-0.2,0.256-0.444,0.452-0.732,0.588
		c-0.607,0.272-1.136,0.436-1.584,0.492l-0.3,0.036c0.088,0.528,0.352,0.792,0.792,0.792c0.192,0,0.404-0.042,0.636-0.126
		c0.232-0.084,0.416-0.17,0.552-0.258l0.204-0.12l0.385,0.516l-0.133,0.132c-0.048,0.048-0.161,0.142-0.342,0.282
		c-0.18,0.14-0.368,0.262-0.563,0.366c-0.196,0.104-0.446,0.198-0.75,0.282c-0.305,0.084-0.608,0.126-0.912,0.126
		c-0.681,0-1.206-0.198-1.578-0.594S303.913,313.848,303.913,313.096z M306.828,312.058c0.232-0.348,0.349-0.64,0.349-0.876
		s-0.068-0.354-0.204-0.354c-0.2,0-0.384,0.156-0.552,0.468s-0.265,0.756-0.288,1.332
		C306.364,312.596,306.597,312.406,306.828,312.058z"/>
	<path d="M311.496,315.171c-0.416,0.16-0.794,0.24-1.134,0.24s-0.618-0.098-0.834-0.294s-0.324-0.478-0.324-0.846
		c0-0.368,0.202-1.394,0.606-3.078c0.404-1.684,0.606-2.934,0.606-3.75c0-0.176-0.024-0.4-0.072-0.672
		c0.752-0.208,1.479-0.312,2.184-0.312c0.072,0.128,0.108,0.336,0.108,0.624c0,0.544-0.202,1.73-0.606,3.558
		c-0.403,1.828-0.605,2.882-0.605,3.162c0,0.28,0.048,0.42,0.144,0.42c0.08,0,0.252-0.052,0.517-0.156l0.132-0.06l0.288,0.588
		C312.248,314.82,311.912,315.012,311.496,315.171z"/>
	<path d="M315.456,313.959l0.12-2.64c0-0.168-0.024-0.313-0.071-0.438c-0.049-0.124-0.164-0.294-0.349-0.51l0.036-0.192
		c0.607-0.152,1.111-0.228,1.512-0.228s0.686,0.096,0.858,0.288c0.172,0.192,0.258,0.458,0.258,0.798c0,0.34-0.061,0.838-0.18,1.494
		c-0.12,0.656-0.181,1.098-0.181,1.326s0.064,0.342,0.192,0.342c0.176,0,0.396-0.104,0.66-0.312
		c0.008-0.136,0.044-0.528,0.107-1.176c0.064-0.648,0.097-1.13,0.097-1.446s-0.024-0.594-0.072-0.834
		c0.184-0.096,0.504-0.184,0.96-0.264c0.456-0.08,0.84-0.12,1.152-0.12c0.071,0.144,0.107,0.37,0.107,0.678
		s-0.068,0.844-0.204,1.608c-0.136,0.764-0.204,1.264-0.204,1.5c0,0.236,0.064,0.354,0.192,0.354c0.192,0,0.439-0.19,0.744-0.57
		c0.304-0.38,0.504-0.726,0.6-1.038l-0.876-0.864c0.032-0.328,0.104-0.638,0.216-0.93c0.112-0.292,0.217-0.502,0.312-0.63
		l0.132-0.192c0.968,0,1.452,0.392,1.452,1.176c0,0.376-0.103,0.812-0.307,1.308c-0.203,0.496-0.462,0.962-0.773,1.398
		c-0.312,0.436-0.684,0.806-1.116,1.11c-0.432,0.304-0.852,0.456-1.26,0.456c-0.568,0-0.956-0.244-1.164-0.732
		c-0.584,0.48-1.185,0.72-1.8,0.72c-0.368,0-0.652-0.108-0.852-0.324C315.556,314.859,315.456,314.488,315.456,313.959z"/>
	<path d="M326.016,310.762c0,0.356-0.1,0.904-0.3,1.644c-0.2,0.74-0.3,1.222-0.3,1.446c0,0.224,0.044,0.336,0.132,0.336
		s0.248-0.04,0.48-0.12l0.107-0.048l0.217,0.6c-0.272,0.208-0.61,0.392-1.015,0.552c-0.404,0.16-0.77,0.24-1.098,0.24
		s-0.586-0.092-0.774-0.276c-0.188-0.184-0.281-0.45-0.281-0.798c0-0.348,0.098-0.88,0.294-1.596
		c0.195-0.716,0.294-1.17,0.294-1.362c0-0.296-0.104-0.576-0.312-0.84l-0.096-0.132l0.036-0.204
		c0.416-0.128,1.224-0.192,2.424-0.192C325.952,310.156,326.016,310.406,326.016,310.762z M325.122,309.076
		c-0.364,0-0.648-0.096-0.852-0.288c-0.204-0.192-0.307-0.438-0.307-0.738c0-0.3,0.126-0.552,0.378-0.756s0.559-0.306,0.918-0.306
		c0.36,0,0.641,0.084,0.84,0.252c0.2,0.168,0.301,0.404,0.301,0.708c0,0.304-0.122,0.568-0.366,0.792
		S325.486,309.076,325.122,309.076z"/>
	<path d="M330.852,311.02l-1.032-0.084c-0.319,1.432-0.494,2.264-0.521,2.496c-0.028,0.232-0.042,0.422-0.042,0.57
		c0,0.148,0.048,0.222,0.144,0.222c0.112,0,0.324-0.072,0.637-0.216l0.287,0.576c-0.256,0.232-0.58,0.428-0.972,0.588
		c-0.392,0.16-0.77,0.24-1.134,0.24s-0.654-0.094-0.87-0.282c-0.216-0.188-0.324-0.454-0.324-0.798c0-0.344,0.101-0.896,0.3-1.656
		c0.2-0.76,0.332-1.324,0.396-1.692c-0.192,0.016-0.477,0.044-0.852,0.084c-0.032-0.168-0.049-0.326-0.049-0.474
		s0.021-0.314,0.061-0.498h0.96c0.008-0.104,0.012-0.452,0.012-1.044l-0.023-0.492c0.775-0.256,1.516-0.384,2.22-0.384
		c0.056,0.128,0.084,0.35,0.084,0.666s-0.053,0.734-0.156,1.254h1.08C331.056,310.424,330.987,310.731,330.852,311.02z"/>
	<path d="M334.393,307.096c0,0.56-0.204,1.712-0.612,3.456c0.688-0.392,1.23-0.588,1.626-0.588c0.396,0,0.69,0.106,0.882,0.318
		c0.192,0.212,0.288,0.476,0.288,0.792s-0.088,0.812-0.264,1.488c-0.176,0.676-0.265,1.118-0.265,1.326s0.032,0.312,0.097,0.312
		l0.624-0.168l0.216,0.6c-0.248,0.185-0.59,0.36-1.026,0.528c-0.436,0.168-0.821,0.252-1.157,0.252
		c-0.648,0-0.973-0.368-0.973-1.104c0-0.336,0.084-0.832,0.252-1.488c0.168-0.656,0.252-1.07,0.252-1.242s-0.06-0.258-0.18-0.258
		c-0.168,0-0.372,0.08-0.612,0.24c-0.359,1.528-0.54,2.592-0.54,3.192l0.013,0.288c-0.816,0.216-1.549,0.324-2.196,0.324
		c-0.048-0.024-0.072-0.152-0.072-0.384c0-0.496,0.238-1.724,0.714-3.684c0.477-1.96,0.714-3.28,0.714-3.96
		c0-0.208-0.016-0.392-0.048-0.552c0.776-0.216,1.504-0.324,2.185-0.324C334.364,306.596,334.393,306.808,334.393,307.096z"/>
	<path d="M340.11,312.64c0.212-0.768,0.317-1.24,0.317-1.416s-0.144-0.432-0.432-0.768l0.024-0.18c0.728-0.16,1.579-0.24,2.556-0.24
		c0.063,0.136,0.096,0.352,0.096,0.648s-0.11,0.856-0.33,1.68c-0.22,0.824-0.33,1.312-0.33,1.464c0,0.208,0.101,0.312,0.301,0.312
		c0.136,0,0.308-0.052,0.516-0.156c0.024-0.128,0.096-0.464,0.216-1.008c0.28-1.208,0.42-2.112,0.42-2.712
		c0.368-0.16,0.996-0.24,1.884-0.24h0.324c0,0.36-0.105,1.064-0.317,2.112c-0.213,1.048-0.32,1.652-0.324,1.812
		s0.03,0.24,0.102,0.24l0.588-0.156l0.217,0.6c-0.232,0.185-0.568,0.36-1.009,0.528c-0.439,0.168-0.828,0.252-1.164,0.252
		c-0.496,0-0.804-0.2-0.924-0.6c-0.664,0.4-1.3,0.6-1.908,0.6c-0.76,0-1.14-0.372-1.14-1.116
		C339.792,313.959,339.898,313.408,340.11,312.64z"/>
	<path d="M350.292,313.647c0,0.496-0.23,0.914-0.69,1.254c-0.46,0.34-0.998,0.51-1.613,0.51c-0.616,0-1.122-0.104-1.519-0.312
		c-0.396-0.208-0.594-0.406-0.594-0.594c0-0.188,0.122-0.428,0.366-0.72s0.494-0.462,0.75-0.51c0.367,0.2,0.7,0.644,0.996,1.332
		c0.231,0,0.348-0.076,0.348-0.228c0-0.112-0.032-0.216-0.096-0.312c-0.064-0.096-0.112-0.172-0.145-0.228
		c-0.032-0.056-0.088-0.134-0.168-0.234c-0.08-0.1-0.14-0.174-0.18-0.222c-0.2-0.24-0.38-0.46-0.54-0.66
		c-0.384-0.48-0.576-0.902-0.576-1.266c0-0.364,0.116-0.662,0.348-0.894c0.4-0.408,0.988-0.612,1.765-0.612
		c0.487,0,0.876,0.094,1.164,0.282c0.288,0.188,0.432,0.468,0.432,0.84s-0.22,0.798-0.66,1.278
		C350.088,312.824,350.292,313.256,350.292,313.647z M349.488,311.446c0.096-0.148,0.144-0.282,0.144-0.402
		s-0.052-0.212-0.156-0.276c-0.104-0.064-0.228-0.096-0.372-0.096c-0.144,0-0.254,0.034-0.329,0.102
		c-0.076,0.068-0.114,0.158-0.114,0.27c0,0.112,0.172,0.36,0.516,0.744C349.288,311.708,349.392,311.594,349.488,311.446z"/>
</g>
<path style="fill:#F15A29;" d="M409.979,202.766"/>
</svg>
